      <svg
        width="26"
        height="26"
        viewBox="0 0 26 26"
        fill="none"
        xmlns="http://www.w3.org/2000/svg"
      >
        <path
          d="M14.2847 0.501294C15.1969 0.497794 16.1091 0.506961 17.021 0.528794L17.2635 0.537544C17.5435 0.547544 17.8197 0.560044 18.1535 0.575044C19.4835 0.637544 20.391 0.847544 21.1872 1.15629C22.0122 1.47379 22.7072 1.90379 23.4022 2.59879C24.0377 3.2233 24.5295 3.97873 24.8435 4.81254C25.1522 5.60879 25.3622 6.51754 25.4247 7.84754C25.4397 8.18004 25.4522 8.45754 25.4622 8.73754L25.4697 8.98004C25.492 9.89153 25.5015 10.8033 25.4985 11.715L25.4997 12.6475V14.285C25.5028 15.1972 25.4932 16.1094 25.471 17.0213L25.4635 17.2638C25.4535 17.5438 25.441 17.82 25.426 18.1538C25.3635 19.4838 25.151 20.3913 24.8435 21.1875C24.5306 22.0222 24.0386 22.7783 23.4022 23.4025C22.7772 24.0379 22.0214 24.5297 21.1872 24.8438C20.391 25.1525 19.4835 25.3625 18.1535 25.425C17.8197 25.44 17.5435 25.4525 17.2635 25.4625L17.021 25.47C16.1091 25.4923 15.1969 25.5019 14.2847 25.4988L13.3522 25.5H11.716C10.8038 25.5031 9.89165 25.4935 8.97974 25.4713L8.73724 25.4638C8.44051 25.453 8.14384 25.4405 7.84724 25.4263C6.51724 25.3638 5.60974 25.1513 4.81224 24.8438C3.9781 24.5305 3.22254 24.0386 2.59849 23.4025C1.9623 22.7779 1.47002 22.022 1.15599 21.1875C0.847245 20.3913 0.637245 19.4838 0.574745 18.1538C0.560823 17.8572 0.548323 17.5605 0.537245 17.2638L0.530995 17.0213C0.507949 16.1094 0.497532 15.1972 0.499745 14.285V11.715C0.496256 10.8033 0.505424 9.89154 0.527245 8.98004L0.535995 8.73754C0.545995 8.45754 0.558495 8.18004 0.573495 7.84754C0.635995 6.51629 0.845995 5.61004 1.15474 4.81254C1.46896 3.97832 1.9622 3.2231 2.59974 2.60004C3.22336 1.96348 3.97845 1.47076 4.81224 1.15629C5.60974 0.847544 6.51599 0.637544 7.84724 0.575044L8.73724 0.537544L8.97974 0.531294C9.89122 0.50826 10.803 0.497842 11.7147 0.500044L14.2847 0.501294ZM12.9997 6.75129C12.1716 6.73958 11.3494 6.89257 10.581 7.20138C9.81249 7.51018 9.11305 7.96864 8.5233 8.55011C7.93355 9.13158 7.46525 9.82447 7.1456 10.5885C6.82596 11.3525 6.66136 12.1725 6.66136 13.0007C6.66136 13.8289 6.82596 14.6488 7.1456 15.4128C7.46525 16.1769 7.93355 16.8698 8.5233 17.4512C9.11305 18.0327 9.81249 18.4912 10.581 18.8C11.3494 19.1088 12.1716 19.2618 12.9997 19.25C14.6573 19.25 16.2471 18.5916 17.4192 17.4195C18.5913 16.2474 19.2497 14.6576 19.2497 13C19.2497 11.3424 18.5913 9.75273 17.4192 8.58063C16.2471 7.40852 14.6573 6.75129 12.9997 6.75129ZM12.9997 9.25129C13.4979 9.24212 13.9928 9.33229 14.4557 9.51655C14.9186 9.70082 15.3402 9.97547 15.6957 10.3245C16.0513 10.6735 16.3337 11.0898 16.5265 11.5492C16.7194 12.0086 16.8187 12.5018 16.8188 13C16.8189 13.4983 16.7197 13.9915 16.527 14.4509C16.3344 14.9104 16.052 15.3268 15.6966 15.676C15.3412 16.0251 14.9197 16.2999 14.4569 16.4843C13.9941 16.6687 13.4991 16.7591 13.001 16.75C12.0064 16.75 11.0526 16.355 10.3493 15.6517C9.64608 14.9484 9.251 13.9946 9.251 13C9.251 12.0055 9.64608 11.0517 10.3493 10.3484C11.0526 9.64513 12.0064 9.25004 13.001 9.25004L12.9997 9.25129ZM19.5622 4.87629C19.159 4.89243 18.7776 5.06398 18.498 5.35501C18.2184 5.64603 18.0622 6.03396 18.0622 6.43754C18.0622 6.84113 18.2184 7.22905 18.498 7.52008C18.7776 7.81111 19.159 7.98265 19.5622 7.99879C19.9766 7.99879 20.3741 7.83417 20.6671 7.54115C20.9601 7.24812 21.1247 6.85069 21.1247 6.43629C21.1247 6.02189 20.9601 5.62447 20.6671 5.33144C20.3741 5.03841 19.9766 4.87379 19.5622 4.87379V4.87629Z"
          fill="#9DA2AA"
        />
      </svg>