<svg
        width="24"
        height="25"
        viewBox="0 0 24 25"
        fill="none"
        xmlns="http://www.w3.org/2000/svg"
      >
        <path
          d="M2.9375 0.34375C2.23302 0.34375 1.55739 0.623604 1.05925 1.12175C0.561104 1.61989 0.28125 2.29552 0.28125 3C0.28125 3.70448 0.561104 4.38011 1.05925 4.87825C1.55739 5.3764 2.23302 5.65625 2.9375 5.65625C3.64198 5.65625 4.31761 5.3764 4.81575 4.87825C5.3139 4.38011 5.59375 3.70448 5.59375 3C5.59375 2.29552 5.3139 1.61989 4.81575 1.12175C4.31761 0.623604 3.64198 0.34375 2.9375 0.34375ZM0.4375 7.84375C0.39606 7.84375 0.356317 7.86021 0.327014 7.88951C0.297712 7.91882 0.28125 7.95856 0.28125 8V24.25C0.28125 24.3363 0.35125 24.4062 0.4375 24.4062H5.4375C5.47894 24.4062 5.51868 24.3898 5.54799 24.3605C5.57729 24.3312 5.59375 24.2914 5.59375 24.25V8C5.59375 7.95856 5.57729 7.91882 5.54799 7.88951C5.51868 7.86021 5.47894 7.84375 5.4375 7.84375H0.4375ZM8.5625 7.84375C8.52106 7.84375 8.48132 7.86021 8.45201 7.88951C8.42271 7.91882 8.40625 7.95856 8.40625 8V24.25C8.40625 24.3363 8.47625 24.4062 8.5625 24.4062H13.5625C13.6039 24.4062 13.6437 24.3898 13.673 24.3605C13.7023 24.3312 13.7188 24.2914 13.7188 24.25V15.5C13.7188 14.8784 13.9657 14.2823 14.4052 13.8427C14.8448 13.4032 15.4409 13.1562 16.0625 13.1562C16.6841 13.1562 17.2802 13.4032 17.7198 13.8427C18.1593 14.2823 18.4062 14.8784 18.4062 15.5V24.25C18.4062 24.3363 18.4762 24.4062 18.5625 24.4062H23.5625C23.6039 24.4062 23.6437 24.3898 23.673 24.3605C23.7023 24.3312 23.7188 24.2914 23.7188 24.25V13.475C23.7188 10.4412 21.0813 8.06875 18.0625 8.3425C17.1285 8.42753 16.2136 8.65867 15.3512 9.0275L13.7188 9.7275V8C13.7188 7.95856 13.7023 7.91882 13.673 7.88951C13.6437 7.86021 13.6039 7.84375 13.5625 7.84375H8.5625Z"
          fill="#9DA2AA"
        />
      </svg>