<svg width="445" height="283" viewBox="0 0 445 283" fill="none" xmlns="http://www.w3.org/2000/svg">
<g id="2 &#197;&#159;&#201;&#153;kil (Landing page)">
<path id="2020" d="M362.42 228.604V227.906L365.044 225.034C365.352 224.697 365.605 224.405 365.805 224.156C366.004 223.905 366.151 223.67 366.247 223.45C366.345 223.227 366.395 222.994 366.395 222.751C366.395 222.472 366.327 222.23 366.193 222.025C366.061 221.821 365.88 221.663 365.649 221.552C365.419 221.441 365.16 221.385 364.873 221.385C364.568 221.385 364.301 221.448 364.074 221.575C363.848 221.699 363.674 221.874 363.55 222.099C363.428 222.324 363.367 222.588 363.367 222.891H362.451C362.451 222.425 362.558 222.016 362.773 221.664C362.988 221.312 363.28 221.038 363.65 220.842C364.023 220.645 364.441 220.547 364.904 220.547C365.37 220.547 365.783 220.645 366.142 220.842C366.502 221.038 366.784 221.303 366.989 221.637C367.193 221.971 367.295 222.342 367.295 222.751C367.295 223.044 367.242 223.33 367.136 223.609C367.033 223.886 366.851 224.195 366.593 224.537C366.336 224.876 365.981 225.29 365.525 225.779L363.74 227.688V227.751H367.435V228.604H362.42ZM371.631 228.713C371.046 228.713 370.548 228.554 370.136 228.236C369.725 227.915 369.411 227.45 369.193 226.842C368.976 226.232 368.867 225.494 368.867 224.63C368.867 223.771 368.976 223.037 369.193 222.429C369.413 221.818 369.729 221.353 370.14 221.032C370.554 220.708 371.051 220.547 371.631 220.547C372.21 220.547 372.706 220.708 373.117 221.032C373.531 221.353 373.847 221.818 374.064 222.429C374.284 223.037 374.394 223.771 374.394 224.63C374.394 225.494 374.286 226.232 374.068 226.842C373.851 227.45 373.537 227.915 373.125 228.236C372.714 228.554 372.216 228.713 371.631 228.713ZM371.631 227.859C372.21 227.859 372.661 227.58 372.982 227.021C373.302 226.462 373.463 225.665 373.463 224.63C373.463 223.942 373.389 223.355 373.242 222.872C373.097 222.388 372.887 222.019 372.613 221.765C372.341 221.512 372.014 221.385 371.631 221.385C371.056 221.385 370.607 221.668 370.284 222.235C369.96 222.799 369.799 223.597 369.799 224.63C369.799 225.318 369.871 225.903 370.016 226.384C370.161 226.866 370.369 227.232 370.641 227.483C370.915 227.734 371.245 227.859 371.631 227.859ZM375.869 228.604V227.906L378.493 225.034C378.801 224.697 379.055 224.405 379.254 224.156C379.453 223.905 379.601 223.67 379.696 223.45C379.795 223.227 379.844 222.994 379.844 222.751C379.844 222.472 379.777 222.23 379.642 222.025C379.51 221.821 379.329 221.663 379.099 221.552C378.868 221.441 378.61 221.385 378.322 221.385C378.017 221.385 377.751 221.448 377.523 221.575C377.298 221.699 377.123 221.874 376.999 222.099C376.877 222.324 376.816 222.588 376.816 222.891H375.9C375.9 222.425 376.008 222.016 376.223 221.664C376.437 221.312 376.73 221.038 377.1 220.842C377.472 220.645 377.89 220.547 378.353 220.547C378.819 220.547 379.232 220.645 379.592 220.842C379.951 221.038 380.233 221.303 380.438 221.637C380.642 221.971 380.744 222.342 380.744 222.751C380.744 223.044 380.691 223.33 380.585 223.609C380.482 223.886 380.301 224.195 380.042 224.537C379.786 224.876 379.43 225.29 378.975 225.779L377.189 227.688V227.751H380.884V228.604H375.869ZM385.08 228.713C384.495 228.713 383.997 228.554 383.586 228.236C383.174 227.915 382.86 227.45 382.643 226.842C382.425 226.232 382.316 225.494 382.316 224.63C382.316 223.771 382.425 223.037 382.643 222.429C382.862 221.818 383.178 221.353 383.59 221.032C384.004 220.708 384.5 220.547 385.08 220.547C385.66 220.547 386.155 220.708 386.567 221.032C386.981 221.353 387.296 221.818 387.514 222.429C387.734 223.037 387.844 223.771 387.844 224.63C387.844 225.494 387.735 226.232 387.518 226.842C387.3 227.45 386.986 227.915 386.574 228.236C386.163 228.554 385.665 228.713 385.08 228.713ZM385.08 227.859C385.66 227.859 386.11 227.58 386.431 227.021C386.752 226.462 386.912 225.665 386.912 224.63C386.912 223.942 386.838 223.355 386.691 222.872C386.546 222.388 386.336 222.019 386.062 221.765C385.79 221.512 385.463 221.385 385.08 221.385C384.506 221.385 384.057 221.668 383.733 222.235C383.41 222.799 383.248 223.597 383.248 224.63C383.248 225.318 383.32 225.903 383.465 226.384C383.61 226.866 383.819 227.232 384.09 227.483C384.365 227.734 384.695 227.859 385.08 227.859Z" fill="#4F4F4F"/>
<path id="2015" d="M304.256 228.604V227.906L306.88 225.034C307.188 224.697 307.441 224.405 307.64 224.156C307.84 223.905 307.987 223.67 308.083 223.45C308.181 223.227 308.23 222.994 308.23 222.751C308.23 222.472 308.163 222.23 308.029 222.025C307.897 221.821 307.716 221.663 307.485 221.552C307.255 221.441 306.996 221.385 306.709 221.385C306.404 221.385 306.137 221.448 305.909 221.575C305.684 221.699 305.51 221.874 305.385 222.099C305.264 222.324 305.203 222.588 305.203 222.891H304.287C304.287 222.425 304.394 222.016 304.609 221.664C304.824 221.312 305.116 221.038 305.486 220.842C305.859 220.645 306.277 220.547 306.74 220.547C307.206 220.547 307.619 220.645 307.978 220.842C308.338 221.038 308.62 221.303 308.824 221.637C309.029 221.971 309.131 222.342 309.131 222.751C309.131 223.044 309.078 223.33 308.972 223.609C308.868 223.886 308.687 224.195 308.428 224.537C308.172 224.876 307.816 225.29 307.361 225.779L305.576 227.688V227.751H309.271V228.604H304.256ZM313.467 228.713C312.882 228.713 312.384 228.554 311.972 228.236C311.561 227.915 311.246 227.45 311.029 226.842C310.812 226.232 310.703 225.494 310.703 224.63C310.703 223.771 310.812 223.037 311.029 222.429C311.249 221.818 311.565 221.353 311.976 221.032C312.39 220.708 312.887 220.547 313.467 220.547C314.046 220.547 314.542 220.708 314.953 221.032C315.367 221.353 315.683 221.818 315.9 222.429C316.12 223.037 316.23 223.771 316.23 224.63C316.23 225.494 316.122 226.232 315.904 226.842C315.687 227.45 315.372 227.915 314.961 228.236C314.55 228.554 314.051 228.713 313.467 228.713ZM313.467 227.859C314.046 227.859 314.496 227.58 314.817 227.021C315.138 226.462 315.299 225.665 315.299 224.63C315.299 223.942 315.225 223.355 315.077 222.872C314.932 222.388 314.723 222.019 314.449 221.765C314.177 221.512 313.85 221.385 313.467 221.385C312.892 221.385 312.443 221.668 312.12 222.235C311.796 222.799 311.635 223.597 311.635 224.63C311.635 225.318 311.707 225.903 311.852 226.384C311.997 226.866 312.205 227.232 312.477 227.483C312.751 227.734 313.081 227.859 313.467 227.859ZM320.5 220.655V228.604H319.537V221.664H319.491L317.55 222.953V221.975L319.537 220.655H320.5ZM325.27 228.713C324.815 228.713 324.405 228.623 324.04 228.441C323.675 228.26 323.382 228.012 323.163 227.696C322.943 227.381 322.822 227.021 322.802 226.617H323.733C323.769 226.977 323.932 227.274 324.222 227.51C324.515 227.743 324.864 227.859 325.27 227.859C325.596 227.859 325.886 227.783 326.14 227.63C326.396 227.478 326.596 227.268 326.741 227.001C326.889 226.732 326.962 226.428 326.962 226.089C326.962 225.743 326.886 225.433 326.733 225.162C326.583 224.887 326.376 224.671 326.112 224.513C325.848 224.356 325.547 224.275 325.208 224.273C324.965 224.27 324.715 224.308 324.459 224.385C324.203 224.46 323.992 224.557 323.826 224.676L322.926 224.568L323.407 220.655H327.537V221.509H324.214L323.935 223.854H323.982C324.145 223.724 324.349 223.617 324.595 223.531C324.841 223.446 325.097 223.403 325.363 223.403C325.85 223.403 326.283 223.52 326.664 223.753C327.047 223.983 327.347 224.299 327.564 224.7C327.784 225.101 327.894 225.559 327.894 226.074C327.894 226.581 327.78 227.034 327.552 227.432C327.327 227.828 327.017 228.141 326.621 228.372C326.225 228.599 325.775 228.713 325.27 228.713Z" fill="#4F4F4F"/>
<path id="2010" d="M247.328 228.604V227.906L249.952 225.034C250.26 224.697 250.514 224.405 250.713 224.156C250.912 223.905 251.06 223.67 251.155 223.45C251.254 223.227 251.303 222.994 251.303 222.751C251.303 222.472 251.236 222.23 251.101 222.025C250.969 221.821 250.788 221.663 250.558 221.552C250.327 221.441 250.069 221.385 249.781 221.385C249.476 221.385 249.209 221.448 248.982 221.575C248.757 221.699 248.582 221.874 248.458 222.099C248.336 222.324 248.275 222.588 248.275 222.891H247.359C247.359 222.425 247.467 222.016 247.681 221.664C247.896 221.312 248.189 221.038 248.559 220.842C248.931 220.645 249.349 220.547 249.812 220.547C250.278 220.547 250.691 220.645 251.051 220.842C251.41 221.038 251.692 221.303 251.897 221.637C252.101 221.971 252.203 222.342 252.203 222.751C252.203 223.044 252.15 223.33 252.044 223.609C251.941 223.886 251.76 224.195 251.501 224.537C251.245 224.876 250.889 225.29 250.433 225.779L248.648 227.688V227.751H252.343V228.604H247.328ZM256.539 228.713C255.954 228.713 255.456 228.554 255.045 228.236C254.633 227.915 254.319 227.45 254.101 226.842C253.884 226.232 253.775 225.494 253.775 224.63C253.775 223.771 253.884 223.037 254.101 222.429C254.321 221.818 254.637 221.353 255.048 221.032C255.462 220.708 255.959 220.547 256.539 220.547C257.119 220.547 257.614 220.708 258.026 221.032C258.44 221.353 258.755 221.818 258.973 222.429C259.193 223.037 259.303 223.771 259.303 224.63C259.303 225.494 259.194 226.232 258.977 226.842C258.759 227.45 258.445 227.915 258.033 228.236C257.622 228.554 257.124 228.713 256.539 228.713ZM256.539 227.859C257.119 227.859 257.569 227.58 257.89 227.021C258.211 226.462 258.371 225.665 258.371 224.63C258.371 223.942 258.297 223.355 258.15 222.872C258.005 222.388 257.795 222.019 257.521 221.765C257.249 221.512 256.922 221.385 256.539 221.385C255.964 221.385 255.516 221.668 255.192 222.235C254.869 222.799 254.707 223.597 254.707 224.63C254.707 225.318 254.779 225.903 254.924 226.384C255.069 226.866 255.277 227.232 255.549 227.483C255.823 227.734 256.153 227.859 256.539 227.859ZM263.572 220.655V228.604H262.61V221.664H262.563L260.622 222.953V221.975L262.61 220.655H263.572ZM268.451 228.713C267.866 228.713 267.368 228.554 266.957 228.236C266.545 227.915 266.231 227.45 266.014 226.842C265.796 226.232 265.688 225.494 265.688 224.63C265.688 223.771 265.796 223.037 266.014 222.429C266.234 221.818 266.549 221.353 266.961 221.032C267.375 220.708 267.872 220.547 268.451 220.547C269.031 220.547 269.526 220.708 269.938 221.032C270.352 221.353 270.668 221.818 270.885 222.429C271.105 223.037 271.215 223.771 271.215 224.63C271.215 225.494 271.106 226.232 270.889 226.842C270.671 227.45 270.357 227.915 269.946 228.236C269.534 228.554 269.036 228.713 268.451 228.713ZM268.451 227.859C269.031 227.859 269.481 227.58 269.802 227.021C270.123 226.462 270.283 225.665 270.283 224.63C270.283 223.942 270.21 223.355 270.062 222.872C269.917 222.388 269.707 222.019 269.433 221.765C269.162 221.512 268.834 221.385 268.451 221.385C267.877 221.385 267.428 221.668 267.104 222.235C266.781 222.799 266.619 223.597 266.619 224.63C266.619 225.318 266.692 225.903 266.837 226.384C266.981 226.866 267.19 227.232 267.461 227.483C267.736 227.734 268.066 227.859 268.451 227.859Z" fill="#4F4F4F"/>
<path id="2005" d="M189.707 228.604V227.906L192.331 225.034C192.639 224.697 192.892 224.405 193.091 224.156C193.291 223.905 193.438 223.67 193.534 223.45C193.632 223.227 193.681 222.994 193.681 222.751C193.681 222.472 193.614 222.23 193.48 222.025C193.348 221.821 193.166 221.663 192.936 221.552C192.706 221.441 192.447 221.385 192.16 221.385C191.855 221.385 191.588 221.448 191.36 221.575C191.135 221.699 190.96 221.874 190.836 222.099C190.715 222.324 190.654 222.588 190.654 222.891H189.738C189.738 222.425 189.845 222.016 190.06 221.664C190.275 221.312 190.567 221.038 190.937 220.842C191.31 220.645 191.728 220.547 192.191 220.547C192.657 220.547 193.069 220.645 193.429 220.842C193.789 221.038 194.071 221.303 194.275 221.637C194.48 221.971 194.582 222.342 194.582 222.751C194.582 223.044 194.529 223.33 194.423 223.609C194.319 223.886 194.138 224.195 193.879 224.537C193.623 224.876 193.267 225.29 192.812 225.779L191.026 227.688V227.751H194.722V228.604H189.707ZM198.917 228.713C198.333 228.713 197.835 228.554 197.423 228.236C197.012 227.915 196.697 227.45 196.48 226.842C196.263 226.232 196.154 225.494 196.154 224.63C196.154 223.771 196.263 223.037 196.48 222.429C196.7 221.818 197.016 221.353 197.427 221.032C197.841 220.708 198.338 220.547 198.917 220.547C199.497 220.547 199.993 220.708 200.404 221.032C200.818 221.353 201.134 221.818 201.351 222.429C201.571 223.037 201.681 223.771 201.681 224.63C201.681 225.494 201.572 226.232 201.355 226.842C201.138 227.45 200.823 227.915 200.412 228.236C200 228.554 199.502 228.713 198.917 228.713ZM198.917 227.859C199.497 227.859 199.947 227.58 200.268 227.021C200.589 226.462 200.75 225.665 200.75 224.63C200.75 223.942 200.676 223.355 200.528 222.872C200.383 222.388 200.174 222.019 199.9 221.765C199.628 221.512 199.3 221.385 198.917 221.385C198.343 221.385 197.894 221.668 197.571 222.235C197.247 222.799 197.085 223.597 197.085 224.63C197.085 225.318 197.158 225.903 197.303 226.384C197.448 226.866 197.656 227.232 197.928 227.483C198.202 227.734 198.532 227.859 198.917 227.859ZM205.749 228.713C205.164 228.713 204.666 228.554 204.255 228.236C203.843 227.915 203.529 227.45 203.311 226.842C203.094 226.232 202.985 225.494 202.985 224.63C202.985 223.771 203.094 223.037 203.311 222.429C203.531 221.818 203.847 221.353 204.258 221.032C204.672 220.708 205.169 220.547 205.749 220.547C206.329 220.547 206.824 220.708 207.235 221.032C207.65 221.353 207.965 221.818 208.183 222.429C208.403 223.037 208.512 223.771 208.512 224.63C208.512 225.494 208.404 226.232 208.186 226.842C207.969 227.45 207.655 227.915 207.243 228.236C206.832 228.554 206.334 228.713 205.749 228.713ZM205.749 227.859C206.329 227.859 206.779 227.58 207.1 227.021C207.421 226.462 207.581 225.665 207.581 224.63C207.581 223.942 207.507 223.355 207.36 222.872C207.215 222.388 207.005 222.019 206.731 221.765C206.459 221.512 206.132 221.385 205.749 221.385C205.174 221.385 204.725 221.668 204.402 222.235C204.079 222.799 203.917 223.597 203.917 224.63C203.917 225.318 203.989 225.903 204.134 226.384C204.279 226.866 204.487 227.232 204.759 227.483C205.033 227.734 205.363 227.859 205.749 227.859ZM212.472 228.713C212.016 228.713 211.606 228.623 211.241 228.441C210.876 228.26 210.584 228.012 210.364 227.696C210.144 227.381 210.024 227.021 210.003 226.617H210.935C210.971 226.977 211.134 227.274 211.424 227.51C211.716 227.743 212.065 227.859 212.472 227.859C212.798 227.859 213.087 227.783 213.341 227.63C213.597 227.478 213.798 227.268 213.943 227.001C214.09 226.732 214.164 226.428 214.164 226.089C214.164 225.743 214.088 225.433 213.935 225.162C213.785 224.887 213.578 224.671 213.314 224.513C213.05 224.356 212.748 224.275 212.409 224.273C212.166 224.27 211.917 224.308 211.66 224.385C211.404 224.46 211.193 224.557 211.028 224.676L210.127 224.568L210.608 220.655H214.738V221.509H211.416L211.136 223.854H211.183C211.346 223.724 211.55 223.617 211.796 223.531C212.042 223.446 212.298 223.403 212.565 223.403C213.051 223.403 213.485 223.52 213.865 223.753C214.248 223.983 214.548 224.299 214.766 224.7C214.986 225.101 215.095 225.559 215.095 226.074C215.095 226.581 214.982 227.034 214.754 227.432C214.529 227.828 214.218 228.141 213.822 228.372C213.426 228.599 212.976 228.713 212.472 228.713Z" fill="#4F4F4F"/>
<path id="2000" d="M131.685 228.604V227.906L134.309 225.034C134.617 224.697 134.871 224.405 135.07 224.156C135.269 223.905 135.417 223.67 135.512 223.45C135.611 223.227 135.66 222.994 135.66 222.751C135.66 222.472 135.593 222.23 135.458 222.025C135.326 221.821 135.145 221.663 134.915 221.552C134.684 221.441 134.426 221.385 134.138 221.385C133.833 221.385 133.567 221.448 133.339 221.575C133.114 221.699 132.939 221.874 132.815 222.099C132.693 222.324 132.632 222.588 132.632 222.891H131.716C131.716 222.425 131.824 222.016 132.039 221.664C132.253 221.312 132.546 221.038 132.916 220.842C133.288 220.645 133.706 220.547 134.17 220.547C134.635 220.547 135.048 220.645 135.408 220.842C135.767 221.038 136.049 221.303 136.254 221.637C136.458 221.971 136.56 222.342 136.56 222.751C136.56 223.044 136.507 223.33 136.401 223.609C136.298 223.886 136.117 224.195 135.858 224.537C135.602 224.876 135.246 225.29 134.791 225.779L133.005 227.688V227.751H136.7V228.604H131.685ZM140.896 228.713C140.311 228.713 139.813 228.554 139.402 228.236C138.99 227.915 138.676 227.45 138.459 226.842C138.241 226.232 138.132 225.494 138.132 224.63C138.132 223.771 138.241 223.037 138.459 222.429C138.678 221.818 138.994 221.353 139.406 221.032C139.82 220.708 140.316 220.547 140.896 220.547C141.476 220.547 141.971 220.708 142.383 221.032C142.797 221.353 143.112 221.818 143.33 222.429C143.55 223.037 143.66 223.771 143.66 224.63C143.66 225.494 143.551 226.232 143.334 226.842C143.116 227.45 142.802 227.915 142.39 228.236C141.979 228.554 141.481 228.713 140.896 228.713ZM140.896 227.859C141.476 227.859 141.926 227.58 142.247 227.021C142.568 226.462 142.728 225.665 142.728 224.63C142.728 223.942 142.654 223.355 142.507 222.872C142.362 222.388 142.152 222.019 141.878 221.765C141.606 221.512 141.279 221.385 140.896 221.385C140.322 221.385 139.873 221.668 139.549 222.235C139.226 222.799 139.064 223.597 139.064 224.63C139.064 225.318 139.136 225.903 139.281 226.384C139.426 226.866 139.635 227.232 139.906 227.483C140.181 227.734 140.511 227.859 140.896 227.859ZM147.727 228.713C147.143 228.713 146.645 228.554 146.233 228.236C145.822 227.915 145.507 227.45 145.29 226.842C145.073 226.232 144.964 225.494 144.964 224.63C144.964 223.771 145.073 223.037 145.29 222.429C145.51 221.818 145.826 221.353 146.237 221.032C146.651 220.708 147.148 220.547 147.727 220.547C148.307 220.547 148.803 220.708 149.214 221.032C149.628 221.353 149.944 221.818 150.161 222.429C150.381 223.037 150.491 223.771 150.491 224.63C150.491 225.494 150.382 226.232 150.165 226.842C149.948 227.45 149.633 227.915 149.222 228.236C148.81 228.554 148.312 228.713 147.727 228.713ZM147.727 227.859C148.307 227.859 148.757 227.58 149.078 227.021C149.399 226.462 149.56 225.665 149.56 224.63C149.56 223.942 149.486 223.355 149.338 222.872C149.193 222.388 148.984 222.019 148.71 221.765C148.438 221.512 148.11 221.385 147.727 221.385C147.153 221.385 146.704 221.668 146.381 222.235C146.057 222.799 145.895 223.597 145.895 224.63C145.895 225.318 145.968 225.903 146.113 226.384C146.258 226.866 146.466 227.232 146.738 227.483C147.012 227.734 147.342 227.859 147.727 227.859ZM154.559 228.713C153.974 228.713 153.476 228.554 153.065 228.236C152.653 227.915 152.339 227.45 152.121 226.842C151.904 226.232 151.795 225.494 151.795 224.63C151.795 223.771 151.904 223.037 152.121 222.429C152.341 221.818 152.657 221.353 153.068 221.032C153.482 220.708 153.979 220.547 154.559 220.547C155.139 220.547 155.634 220.708 156.045 221.032C156.46 221.353 156.775 221.818 156.993 222.429C157.213 223.037 157.323 223.771 157.323 224.63C157.323 225.494 157.214 226.232 156.996 226.842C156.779 227.45 156.465 227.915 156.053 228.236C155.642 228.554 155.144 228.713 154.559 228.713ZM154.559 227.859C155.139 227.859 155.589 227.58 155.91 227.021C156.231 226.462 156.391 225.665 156.391 224.63C156.391 223.942 156.317 223.355 156.17 222.872C156.025 222.388 155.815 222.019 155.541 221.765C155.269 221.512 154.942 221.385 154.559 221.385C153.984 221.385 153.535 221.668 153.212 222.235C152.889 222.799 152.727 223.597 152.727 224.63C152.727 225.318 152.799 225.903 152.944 226.384C153.089 226.866 153.297 227.232 153.569 227.483C153.843 227.734 154.173 227.859 154.559 227.859Z" fill="#4F4F4F"/>
<path id="1995" d="M67.5824 220.655V228.604H66.6198V221.664H66.5732L64.6325 222.953V221.975L66.6198 220.655H67.5824ZM72.3993 220.547C72.7253 220.549 73.0514 220.611 73.3774 220.733C73.7035 220.854 74.001 221.056 74.2702 221.338C74.5393 221.618 74.7553 222 74.9184 222.483C75.0814 222.967 75.1629 223.574 75.1629 224.304C75.1629 225.01 75.0956 225.638 74.9611 226.186C74.8291 226.732 74.6376 227.193 74.3866 227.568C74.1382 227.943 73.8354 228.228 73.4783 228.422C73.1238 228.616 72.7227 228.713 72.2751 228.713C71.83 228.713 71.4328 228.625 71.0835 228.449C70.7367 228.271 70.4521 228.024 70.2295 227.708C70.0096 227.39 69.8686 227.021 69.8065 226.602H70.7535C70.8389 226.967 71.0084 227.268 71.262 227.506C71.5182 227.742 71.8559 227.859 72.2751 227.859C72.8884 227.859 73.3722 227.591 73.7268 227.056C74.0838 226.52 74.2624 225.763 74.2624 224.785H74.2003C74.0554 225.002 73.8833 225.19 73.6841 225.348C73.4848 225.506 73.2636 225.627 73.0203 225.713C72.7771 225.798 72.5183 225.841 72.244 225.841C71.7886 225.841 71.3707 225.728 70.9903 225.503C70.6125 225.275 70.3098 224.964 70.082 224.568C69.8569 224.169 69.7444 223.714 69.7444 223.201C69.7444 222.715 69.853 222.27 70.0704 221.866C70.2904 221.46 70.5983 221.137 70.9942 220.896C71.3927 220.655 71.8611 220.539 72.3993 220.547ZM72.3993 221.4C72.0732 221.4 71.7795 221.482 71.5182 221.645C71.2594 221.805 71.0537 222.023 70.901 222.297C70.751 222.569 70.6759 222.87 70.6759 223.201C70.6759 223.533 70.7484 223.834 70.8933 224.106C71.0408 224.375 71.2413 224.59 71.4949 224.75C71.7511 224.908 72.0422 224.987 72.3682 224.987C72.6141 224.987 72.8431 224.939 73.0553 224.843C73.2674 224.745 73.4525 224.612 73.6103 224.444C73.7707 224.273 73.8962 224.08 73.9868 223.865C74.0774 223.648 74.1227 223.421 74.1227 223.186C74.1227 222.875 74.0476 222.584 73.8975 222.313C73.75 222.041 73.5456 221.821 73.2843 221.653C73.0255 221.485 72.7305 221.4 72.3993 221.4ZM79.22 220.547C79.5461 220.549 79.8721 220.611 80.1981 220.733C80.5242 220.854 80.8218 221.056 81.0909 221.338C81.36 221.618 81.5761 222 81.7391 222.483C81.9021 222.967 81.9836 223.574 81.9836 224.304C81.9836 225.01 81.9163 225.638 81.7818 226.186C81.6498 226.732 81.4583 227.193 81.2073 227.568C80.9589 227.943 80.6562 228.228 80.2991 228.422C79.9446 228.616 79.5435 228.713 79.0958 228.713C78.6507 228.713 78.2535 228.625 77.9042 228.449C77.5574 228.271 77.2728 228.024 77.0503 227.708C76.8303 227.39 76.6893 227.021 76.6272 226.602H77.5743C77.6597 226.967 77.8291 227.268 78.0827 227.506C78.3389 227.742 78.6766 227.859 79.0958 227.859C79.7091 227.859 80.193 227.591 80.5475 227.056C80.9046 226.52 81.0831 225.763 81.0831 224.785H81.021C80.8761 225.002 80.704 225.19 80.5048 225.348C80.3055 225.506 80.0843 225.627 79.841 225.713C79.5978 225.798 79.339 225.841 79.0648 225.841C78.6093 225.841 78.1914 225.728 77.811 225.503C77.4332 225.275 77.1305 224.964 76.9028 224.568C76.6776 224.169 76.5651 223.714 76.5651 223.201C76.5651 222.715 76.6738 222.27 76.8911 221.866C77.1111 221.46 77.419 221.137 77.8149 220.896C78.2134 220.655 78.6818 220.539 79.22 220.547ZM79.22 221.4C78.894 221.4 78.6003 221.482 78.3389 221.645C78.0802 221.805 77.8744 222.023 77.7218 222.297C77.5717 222.569 77.4966 222.87 77.4966 223.201C77.4966 223.533 77.5691 223.834 77.714 224.106C77.8615 224.375 78.062 224.59 78.3156 224.75C78.5718 224.908 78.8629 224.987 79.189 224.987C79.4348 224.987 79.6638 224.939 79.876 224.843C80.0882 224.745 80.2732 224.612 80.431 224.444C80.5915 224.273 80.717 224.08 80.8075 223.865C80.8981 223.648 80.9434 223.421 80.9434 223.186C80.9434 222.875 80.8683 222.584 80.7183 222.313C80.5708 222.041 80.3663 221.821 80.105 221.653C79.8462 221.485 79.5512 221.4 79.22 221.4ZM85.9942 228.713C85.5387 228.713 85.1286 228.623 84.7637 228.441C84.3989 228.26 84.1065 228.012 83.8865 227.696C83.6666 227.381 83.5462 227.021 83.5255 226.617H84.4571C84.4933 226.977 84.6563 227.274 84.9462 227.51C85.2386 227.743 85.5879 227.859 85.9942 227.859C86.3202 227.859 86.61 227.783 86.8636 227.63C87.1198 227.478 87.3203 227.268 87.4652 227.001C87.6127 226.732 87.6865 226.428 87.6865 226.089C87.6865 225.743 87.6101 225.433 87.4575 225.162C87.3074 224.887 87.1004 224.671 86.8364 224.513C86.5725 224.356 86.271 224.275 85.9321 224.273C85.6888 224.27 85.4391 224.308 85.1829 224.385C84.9267 224.46 84.7159 224.557 84.5502 224.676L83.6497 224.568L84.131 220.655H88.2609V221.509H84.9384L84.6589 223.854H84.7055C84.8685 223.724 85.073 223.617 85.3188 223.531C85.5646 223.446 85.8208 223.403 86.0873 223.403C86.5738 223.403 87.0072 223.52 87.3876 223.753C87.7706 223.983 88.0707 224.299 88.2881 224.7C88.5081 225.101 88.618 225.559 88.618 226.074C88.618 226.581 88.5042 227.034 88.2765 227.432C88.0513 227.828 87.7408 228.141 87.3449 228.372C86.949 228.599 86.4987 228.713 85.9942 228.713Z" fill="#4F4F4F"/>
<g id="Group 2277">
<g id="Frame 427318646">
<path id="England" d="M88.1551 268V258.461H93.9121V259.486H89.3103V262.709H93.614V263.733H89.3103V266.975H93.9867V268H88.1551ZM96.9443 263.696V268H95.8451V260.846H96.9071V261.964H97.0002C97.1679 261.6 97.4225 261.308 97.7641 261.088C98.1057 260.864 98.5466 260.753 99.0869 260.753C99.5713 260.753 99.9952 260.852 100.358 261.051C100.722 261.246 101.004 261.544 101.206 261.945C101.408 262.342 101.509 262.845 101.509 263.454V268H100.41V263.529C100.41 262.967 100.264 262.529 99.9719 262.215C99.68 261.898 99.2794 261.74 98.7702 261.74C98.4193 261.74 98.1057 261.816 97.8293 261.968C97.5561 262.12 97.3402 262.342 97.1819 262.634C97.0235 262.926 96.9443 263.28 96.9443 263.696ZM106.405 270.832C105.874 270.832 105.418 270.764 105.036 270.627C104.654 270.493 104.336 270.316 104.081 270.096C103.83 269.879 103.629 269.646 103.48 269.397L104.356 268.783C104.455 268.913 104.581 269.062 104.733 269.23C104.885 269.4 105.093 269.548 105.357 269.672C105.624 269.799 105.974 269.863 106.405 269.863C106.983 269.863 107.46 269.723 107.835 269.444C108.211 269.164 108.399 268.727 108.399 268.13V266.677H108.306C108.225 266.808 108.11 266.969 107.961 267.162C107.815 267.351 107.604 267.52 107.328 267.669C107.054 267.815 106.685 267.888 106.219 267.888C105.642 267.888 105.123 267.752 104.663 267.478C104.207 267.205 103.845 266.808 103.578 266.286C103.314 265.764 103.182 265.131 103.182 264.386C103.182 263.653 103.311 263.015 103.569 262.471C103.827 261.925 104.185 261.502 104.645 261.204C105.104 260.903 105.635 260.753 106.238 260.753C106.704 260.753 107.073 260.83 107.346 260.985C107.623 261.138 107.834 261.311 107.98 261.507C108.129 261.7 108.244 261.858 108.324 261.982H108.436V260.846H109.498V268.205C109.498 268.82 109.358 269.32 109.079 269.705C108.803 270.093 108.43 270.377 107.961 270.557C107.495 270.74 106.977 270.832 106.405 270.832ZM106.368 266.901C106.809 266.901 107.182 266.8 107.486 266.598C107.79 266.396 108.022 266.106 108.18 265.727C108.338 265.348 108.418 264.895 108.418 264.367C108.418 263.851 108.34 263.397 108.185 263.002C108.029 262.608 107.8 262.299 107.495 262.075C107.191 261.852 106.815 261.74 106.368 261.74C105.902 261.74 105.514 261.858 105.204 262.094C104.896 262.33 104.665 262.647 104.51 263.044C104.358 263.442 104.281 263.883 104.281 264.367C104.281 264.864 104.359 265.303 104.514 265.685C104.673 266.064 104.906 266.362 105.213 266.579C105.524 266.794 105.909 266.901 106.368 266.901ZM112.61 258.461V268H111.51V258.461H112.61ZM116.728 268.168C116.275 268.168 115.863 268.082 115.494 267.912C115.124 267.738 114.831 267.488 114.614 267.162C114.396 266.832 114.288 266.435 114.288 265.969C114.288 265.559 114.368 265.227 114.53 264.972C114.691 264.715 114.907 264.513 115.177 264.367C115.447 264.221 115.745 264.112 116.071 264.041C116.401 263.966 116.731 263.907 117.064 263.864C117.498 263.808 117.851 263.766 118.121 263.738C118.394 263.707 118.593 263.656 118.717 263.584C118.844 263.513 118.908 263.389 118.908 263.212V263.175C118.908 262.715 118.782 262.358 118.531 262.103C118.282 261.849 117.905 261.721 117.399 261.721C116.874 261.721 116.463 261.836 116.165 262.066C115.867 262.296 115.657 262.541 115.536 262.802L114.492 262.429C114.679 261.995 114.927 261.656 115.238 261.414C115.551 261.169 115.893 260.998 116.262 260.902C116.635 260.802 117.001 260.753 117.362 260.753C117.591 260.753 117.855 260.78 118.153 260.836C118.455 260.889 118.745 260.999 119.024 261.167C119.307 261.335 119.542 261.588 119.728 261.926C119.914 262.265 120.007 262.718 120.007 263.286V268H118.908V267.031H118.852C118.778 267.186 118.653 267.353 118.48 267.53C118.306 267.707 118.074 267.857 117.786 267.981C117.497 268.106 117.144 268.168 116.728 268.168ZM116.896 267.18C117.331 267.18 117.697 267.095 117.995 266.924C118.296 266.753 118.523 266.533 118.675 266.263C118.83 265.993 118.908 265.708 118.908 265.41V264.404C118.861 264.46 118.759 264.511 118.601 264.558C118.445 264.601 118.265 264.64 118.06 264.674C117.859 264.705 117.661 264.733 117.469 264.758C117.279 264.78 117.126 264.799 117.008 264.814C116.722 264.851 116.455 264.912 116.207 264.996C115.961 265.076 115.763 265.199 115.61 265.364C115.461 265.525 115.387 265.746 115.387 266.025C115.387 266.407 115.528 266.696 115.811 266.891C116.096 267.084 116.458 267.18 116.896 267.18ZM123.113 263.696V268H122.014V260.846H123.076V261.964H123.169C123.336 261.6 123.591 261.308 123.933 261.088C124.274 260.864 124.715 260.753 125.255 260.753C125.74 260.753 126.164 260.852 126.527 261.051C126.89 261.246 127.173 261.544 127.375 261.945C127.577 262.342 127.677 262.845 127.677 263.454V268H126.578V263.529C126.578 262.967 126.432 262.529 126.14 262.215C125.849 261.898 125.448 261.74 124.939 261.74C124.588 261.74 124.274 261.816 123.998 261.968C123.725 262.12 123.509 262.342 123.35 262.634C123.192 262.926 123.113 263.28 123.113 263.696ZM132.388 268.149C131.791 268.149 131.265 267.998 130.809 267.697C130.352 267.393 129.995 266.964 129.737 266.412C129.48 265.856 129.351 265.199 129.351 264.441C129.351 263.69 129.48 263.038 129.737 262.485C129.995 261.932 130.354 261.506 130.813 261.204C131.273 260.903 131.804 260.753 132.406 260.753C132.872 260.753 133.24 260.83 133.51 260.985C133.783 261.138 133.991 261.311 134.134 261.507C134.28 261.7 134.394 261.858 134.474 261.982H134.567V258.461H135.667V268H134.605V266.901H134.474C134.394 267.031 134.279 267.196 134.13 267.394C133.981 267.59 133.768 267.766 133.492 267.921C133.215 268.073 132.847 268.149 132.388 268.149ZM132.537 267.162C132.978 267.162 133.35 267.047 133.655 266.817C133.959 266.584 134.19 266.263 134.349 265.853C134.507 265.44 134.586 264.963 134.586 264.423C134.586 263.889 134.508 263.421 134.353 263.021C134.198 262.617 133.968 262.304 133.664 262.08C133.36 261.853 132.984 261.74 132.537 261.74C132.071 261.74 131.683 261.86 131.372 262.099C131.065 262.335 130.833 262.656 130.678 263.063C130.526 263.466 130.45 263.92 130.45 264.423C130.45 264.932 130.528 265.395 130.683 265.811C130.841 266.224 131.074 266.553 131.382 266.798C131.692 267.04 132.077 267.162 132.537 267.162Z" fill="#4F4F4F"/>
<rect id="Rectangle 1339" x="67" y="259" width="10" height="10" fill="#165BAA"/>
</g>
<g id="Frame 427318645">
<path id="France" d="M204.83 268V258.461H210.55V259.486H205.985V262.709H210.121V263.733H205.985V268H204.83ZM212.302 268V260.846H213.364V261.926H213.439C213.569 261.572 213.805 261.285 214.147 261.065C214.488 260.844 214.873 260.734 215.302 260.734C215.382 260.734 215.483 260.735 215.605 260.739C215.726 260.742 215.817 260.746 215.879 260.753V261.87C215.842 261.861 215.757 261.847 215.623 261.828C215.493 261.807 215.355 261.796 215.209 261.796C214.861 261.796 214.55 261.869 214.277 262.015C214.007 262.158 213.793 262.356 213.634 262.611C213.479 262.862 213.401 263.15 213.401 263.473V268H212.302ZM219.288 268.168C218.834 268.168 218.423 268.082 218.053 267.912C217.684 267.738 217.39 267.488 217.173 267.162C216.956 266.832 216.847 266.435 216.847 265.969C216.847 265.559 216.928 265.227 217.089 264.972C217.251 264.715 217.466 264.513 217.737 264.367C218.007 264.221 218.305 264.112 218.631 264.041C218.96 263.966 219.291 263.907 219.623 263.864C220.058 263.808 220.41 263.766 220.68 263.738C220.954 263.707 221.152 263.656 221.277 263.584C221.404 263.513 221.467 263.389 221.467 263.212V263.175C221.467 262.715 221.342 262.358 221.09 262.103C220.842 261.849 220.465 261.721 219.958 261.721C219.434 261.721 219.022 261.836 218.724 262.066C218.426 262.296 218.216 262.541 218.095 262.802L217.052 262.429C217.238 261.995 217.487 261.656 217.797 261.414C218.111 261.169 218.452 260.998 218.822 260.902C219.194 260.802 219.561 260.753 219.921 260.753C220.151 260.753 220.415 260.78 220.713 260.836C221.014 260.889 221.304 260.999 221.584 261.167C221.867 261.335 222.101 261.588 222.287 261.926C222.474 262.265 222.567 262.718 222.567 263.286V268H221.467V267.031H221.412C221.337 267.186 221.213 267.353 221.039 267.53C220.865 267.707 220.634 267.857 220.345 267.981C220.056 268.106 219.704 268.168 219.288 268.168ZM219.455 267.18C219.89 267.18 220.256 267.095 220.555 266.924C220.856 266.753 221.082 266.533 221.235 266.263C221.39 265.993 221.467 265.708 221.467 265.41V264.404C221.421 264.46 221.318 264.511 221.16 264.558C221.005 264.601 220.825 264.64 220.62 264.674C220.418 264.705 220.221 264.733 220.028 264.758C219.839 264.78 219.685 264.799 219.567 264.814C219.281 264.851 219.014 264.912 218.766 264.996C218.521 265.076 218.322 265.199 218.17 265.364C218.021 265.525 217.946 265.746 217.946 266.025C217.946 266.407 218.087 266.696 218.37 266.891C218.656 267.084 219.017 267.18 219.455 267.18ZM225.672 263.696V268H224.573V260.846H225.635V261.964H225.728C225.896 261.6 226.15 261.308 226.492 261.088C226.834 260.864 227.275 260.753 227.815 260.753C228.299 260.753 228.723 260.852 229.086 261.051C229.45 261.246 229.732 261.544 229.934 261.945C230.136 262.342 230.237 262.845 230.237 263.454V268H229.138V263.529C229.138 262.967 228.992 262.529 228.7 262.215C228.408 261.898 228.007 261.74 227.498 261.74C227.147 261.74 226.834 261.816 226.557 261.968C226.284 262.12 226.068 262.342 225.91 262.634C225.751 262.926 225.672 263.28 225.672 263.696ZM235.152 268.149C234.481 268.149 233.904 267.991 233.419 267.674C232.935 267.357 232.562 266.921 232.301 266.365C232.041 265.809 231.91 265.174 231.91 264.46C231.91 263.733 232.044 263.092 232.311 262.536C232.581 261.978 232.957 261.541 233.438 261.228C233.922 260.911 234.488 260.753 235.133 260.753C235.636 260.753 236.09 260.846 236.493 261.032C236.897 261.218 237.228 261.479 237.486 261.814C237.743 262.15 237.903 262.541 237.965 262.988H236.866C236.782 262.662 236.596 262.373 236.307 262.122C236.021 261.867 235.636 261.74 235.152 261.74C234.723 261.74 234.348 261.852 234.025 262.075C233.705 262.296 233.455 262.608 233.275 263.012C233.098 263.412 233.009 263.883 233.009 264.423C233.009 264.976 233.096 265.457 233.27 265.867C233.447 266.277 233.696 266.595 234.016 266.822C234.338 267.048 234.717 267.162 235.152 267.162C235.438 267.162 235.697 267.112 235.93 267.013C236.163 266.913 236.36 266.77 236.521 266.584C236.683 266.398 236.798 266.174 236.866 265.913H237.965C237.903 266.336 237.749 266.716 237.504 267.054C237.262 267.39 236.941 267.657 236.54 267.856C236.143 268.051 235.68 268.149 235.152 268.149ZM242.572 268.149C241.882 268.149 241.288 267.997 240.788 267.693C240.291 267.385 239.908 266.957 239.637 266.407C239.37 265.854 239.237 265.212 239.237 264.479C239.237 263.746 239.37 263.1 239.637 262.541C239.908 261.979 240.283 261.541 240.765 261.228C241.249 260.911 241.814 260.753 242.46 260.753C242.833 260.753 243.201 260.815 243.564 260.939C243.927 261.063 244.258 261.265 244.556 261.544C244.854 261.821 245.092 262.187 245.269 262.644C245.446 263.1 245.534 263.662 245.534 264.33V264.795H240.019V263.845H244.416C244.416 263.442 244.336 263.081 244.174 262.765C244.016 262.448 243.789 262.198 243.494 262.015C243.202 261.832 242.858 261.74 242.46 261.74C242.022 261.74 241.643 261.849 241.324 262.066C241.007 262.28 240.763 262.56 240.592 262.904C240.422 263.249 240.336 263.619 240.336 264.013V264.646C240.336 265.187 240.429 265.645 240.616 266.02C240.805 266.393 241.067 266.677 241.403 266.873C241.738 267.065 242.128 267.162 242.572 267.162C242.861 267.162 243.121 267.121 243.354 267.04C243.59 266.957 243.794 266.832 243.965 266.668C244.135 266.5 244.267 266.292 244.36 266.044L245.422 266.342C245.311 266.702 245.123 267.019 244.859 267.292C244.595 267.562 244.269 267.773 243.881 267.925C243.493 268.075 243.056 268.149 242.572 268.149Z" fill="#4F4F4F"/>
<rect id="Rectangle 1340" x="183.675" y="259" width="10" height="10" fill="#1D7157"/>
</g>
<g id="Frame 427318644">
<path id="Italy" d="M322.66 258.461V268H321.505V258.461H322.66ZM327.938 260.846V261.777H324.231V260.846H327.938ZM325.311 259.132H326.411V265.951C326.411 266.261 326.456 266.494 326.546 266.649C326.639 266.801 326.757 266.904 326.9 266.957C327.046 267.006 327.199 267.031 327.361 267.031C327.482 267.031 327.581 267.025 327.659 267.013C327.736 266.997 327.799 266.985 327.845 266.975L328.069 267.963C327.994 267.991 327.89 268.019 327.757 268.047C327.623 268.078 327.454 268.093 327.249 268.093C326.938 268.093 326.634 268.026 326.336 267.893C326.041 267.759 325.796 267.556 325.6 267.283C325.408 267.009 325.311 266.665 325.311 266.249V259.132ZM331.697 268.168C331.244 268.168 330.832 268.082 330.463 267.912C330.093 267.738 329.8 267.488 329.582 267.162C329.365 266.832 329.256 266.435 329.256 265.969C329.256 265.559 329.337 265.227 329.499 264.972C329.66 264.715 329.876 264.513 330.146 264.367C330.416 264.221 330.714 264.112 331.04 264.041C331.37 263.966 331.7 263.907 332.032 263.864C332.467 263.808 332.82 263.766 333.09 263.738C333.363 263.707 333.562 263.656 333.686 263.584C333.813 263.513 333.877 263.389 333.877 263.212V263.175C333.877 262.715 333.751 262.358 333.5 262.103C333.251 261.849 332.874 261.721 332.368 261.721C331.843 261.721 331.432 261.836 331.134 262.066C330.835 262.296 330.626 262.541 330.505 262.802L329.461 262.429C329.648 261.995 329.896 261.656 330.207 261.414C330.52 261.169 330.862 260.998 331.231 260.902C331.604 260.802 331.97 260.753 332.331 260.753C332.56 260.753 332.824 260.78 333.122 260.836C333.424 260.889 333.714 260.999 333.993 261.167C334.276 261.335 334.51 261.588 334.697 261.926C334.883 262.265 334.976 262.718 334.976 263.286V268H333.877V267.031H333.821C333.747 267.186 333.622 267.353 333.448 267.53C333.275 267.707 333.043 267.857 332.754 267.981C332.466 268.106 332.113 268.168 331.697 268.168ZM331.865 267.18C332.3 267.18 332.666 267.095 332.964 266.924C333.265 266.753 333.492 266.533 333.644 266.263C333.799 265.993 333.877 265.708 333.877 265.41V264.404C333.83 264.46 333.728 264.511 333.57 264.558C333.414 264.601 333.234 264.64 333.029 264.674C332.827 264.705 332.63 264.733 332.438 264.758C332.248 264.78 332.095 264.799 331.977 264.814C331.691 264.851 331.424 264.912 331.175 264.996C330.93 265.076 330.731 265.199 330.579 265.364C330.43 265.525 330.356 265.746 330.356 266.025C330.356 266.407 330.497 266.696 330.78 266.891C331.065 267.084 331.427 267.18 331.865 267.18ZM338.082 258.461V268H336.983V258.461H338.082ZM340.803 270.683C340.617 270.683 340.451 270.667 340.305 270.636C340.159 270.608 340.058 270.58 340.002 270.552L340.281 269.584C340.548 269.652 340.784 269.677 340.989 269.658C341.194 269.64 341.376 269.548 341.534 269.383C341.696 269.222 341.843 268.96 341.977 268.596L342.182 268.037L339.536 260.846H340.729L342.703 266.547H342.778L344.753 260.846H345.945L342.908 269.043C342.772 269.413 342.602 269.719 342.401 269.961C342.199 270.206 341.964 270.388 341.697 270.506C341.433 270.624 341.135 270.683 340.803 270.683Z" fill="#4F4F4F"/>
<rect id="Rectangle 1341" x="300.35" y="259.372" width="10" height="10" fill="#3AC1EC"/>
</g>
</g>
<path id="7" d="M31.0943 32.6743L35.3608 24.2344V24.1599H30.4422V23.1352H36.5532V24.2158L32.3053 32.6743H31.0943Z" fill="#4F4F4F"/>
<path id="6" d="M33.2718 62.3165C32.8805 62.3102 32.4893 62.2357 32.098 62.0929C31.7068 61.95 31.3497 61.7094 31.0267 61.3709C30.7038 61.0294 30.4445 60.5682 30.2489 59.9876C30.0533 59.4038 29.9555 58.671 29.9555 57.7891C29.9555 56.9445 30.0346 56.1961 30.193 55.5441C30.3514 54.8889 30.5811 54.3377 30.8823 53.8905C31.1835 53.4403 31.5469 53.0987 31.9723 52.8658C32.4008 52.6329 32.8836 52.5165 33.4208 52.5165C33.9549 52.5165 34.43 52.6236 34.8461 52.8379C35.2653 53.049 35.6069 53.344 35.8708 53.7229C36.1348 54.1017 36.3055 54.538 36.3832 55.0317H35.2467C35.1411 54.6032 34.9362 54.2476 34.6319 53.9651C34.3275 53.6825 33.9239 53.5412 33.4208 53.5412C32.6818 53.5412 32.0996 53.8626 31.6742 54.5054C31.2519 55.1481 31.0392 56.0502 31.0361 57.2115H31.1106C31.2845 56.9476 31.491 56.7225 31.7301 56.5362C31.9723 56.3467 32.2393 56.2008 32.5312 56.0983C32.8231 55.9959 33.132 55.9446 33.4581 55.9446C34.0046 55.9446 34.5045 56.0813 34.9579 56.3545C35.4113 56.6247 35.7746 56.9988 36.0478 57.477C36.3211 57.9521 36.4577 58.4971 36.4577 59.1119C36.4577 59.7019 36.3257 60.2422 36.0618 60.7328C35.7978 61.2203 35.4268 61.6085 34.9486 61.8973C34.4735 62.1829 33.9146 62.3227 33.2718 62.3165ZM33.2718 61.2917C33.663 61.2917 34.0139 61.1939 34.3244 60.9983C34.6381 60.8027 34.8849 60.5403 35.065 60.2111C35.2482 59.882 35.3398 59.5156 35.3398 59.1119C35.3398 58.7175 35.2513 58.3589 35.0743 58.036C34.9004 57.7099 34.6598 57.4506 34.3524 57.2581C34.0481 57.0656 33.7003 56.9693 33.309 56.9693C33.0141 56.9693 32.7392 57.0283 32.4846 57.1463C32.23 57.2612 32.0064 57.4196 31.8139 57.6214C31.6245 57.8233 31.4754 58.0546 31.3668 58.3154C31.2581 58.5732 31.2037 58.8449 31.2037 59.1305C31.2037 59.5094 31.2922 59.8634 31.4692 60.1925C31.6493 60.5217 31.8946 60.7872 32.2052 60.989C32.5188 61.1908 32.8743 61.2917 33.2718 61.2917Z" fill="#4F4F4F"/>
<path id="5" d="M33.2904 91.8282C32.7439 91.8282 32.2517 91.7195 31.8139 91.5021C31.3761 91.2848 31.0252 90.9867 30.7612 90.6078C30.4973 90.229 30.3529 89.7974 30.3281 89.313H31.4459C31.4894 89.7446 31.685 90.1017 32.0328 90.3843C32.3837 90.6637 32.8029 90.8035 33.2904 90.8035C33.6817 90.8035 34.0294 90.7119 34.3338 90.5287C34.6412 90.3454 34.8818 90.0939 35.0557 89.7741C35.2327 89.4512 35.3212 89.0863 35.3212 88.6795C35.3212 88.2634 35.2296 87.8924 35.0464 87.5663C34.8663 87.2372 34.6179 86.9779 34.3012 86.7885C33.9844 86.599 33.6227 86.5028 33.2159 86.4997C32.924 86.4966 32.6244 86.5416 32.3169 86.6348C32.0095 86.7248 31.7565 86.8413 31.5577 86.9841L30.4771 86.8537L31.0547 82.1586H36.0106V83.1834H32.0235L31.6881 85.9966H31.744C31.9397 85.8414 32.185 85.7125 32.48 85.61C32.775 85.5076 33.0824 85.4563 33.4022 85.4563C33.986 85.4563 34.5061 85.5961 34.9626 85.8755C35.4221 86.1519 35.7823 86.5307 36.0432 87.012C36.3071 87.4933 36.4391 88.043 36.4391 88.6609C36.4391 89.2695 36.3024 89.8129 36.0292 90.2911C35.759 90.7662 35.3864 91.1419 34.9113 91.4183C34.4362 91.6915 33.8959 91.8282 33.2904 91.8282Z" fill="#4F4F4F"/>
<path id="4" d="M29.6504 120.346V119.396L33.8424 112.763H34.5317V114.235H34.0659L30.8987 119.247V119.321H36.5439V120.346H29.6504ZM34.1405 122.302V120.057V119.615V112.763H35.2397V122.302H34.1405Z" fill="#4F4F4F"/>
<path id="3" d="M33.1612 150.851C32.5463 150.851 31.9983 150.746 31.517 150.535C31.0388 150.323 30.6584 150.03 30.3758 149.654C30.0963 149.275 29.9442 148.836 29.9194 148.336H31.0931C31.118 148.644 31.2235 148.909 31.4098 149.133C31.5962 149.353 31.8399 149.524 32.1411 149.645C32.4423 149.766 32.7761 149.827 33.1425 149.827C33.5524 149.827 33.9157 149.755 34.2324 149.612C34.5492 149.47 34.7976 149.271 34.9777 149.016C35.1578 148.762 35.2478 148.467 35.2478 148.131C35.2478 147.78 35.1609 147.471 34.987 147.204C34.8131 146.934 34.5585 146.723 34.2231 146.571C33.8878 146.419 33.4779 146.343 32.9935 146.343H32.2296V145.318H32.9935C33.3723 145.318 33.7046 145.25 33.9902 145.113C34.279 144.976 34.5042 144.784 34.6656 144.535C34.8302 144.287 34.9125 143.995 34.9125 143.66C34.9125 143.337 34.8411 143.056 34.6982 142.817C34.5554 142.578 34.3535 142.391 34.0927 142.258C33.835 142.124 33.5307 142.057 33.1798 142.057C32.8506 142.057 32.5401 142.118 32.2482 142.239C31.9595 142.357 31.7235 142.529 31.5403 142.756C31.3571 142.98 31.2577 143.25 31.2422 143.567H30.1243C30.1429 143.067 30.2935 142.629 30.5761 142.253C30.8587 141.874 31.2282 141.579 31.6846 141.368C32.1442 141.157 32.6488 141.051 33.1984 141.051C33.7884 141.051 34.2946 141.171 34.7169 141.41C35.1392 141.646 35.4637 141.958 35.6903 142.346C35.917 142.734 36.0303 143.154 36.0303 143.604C36.0303 144.141 35.8891 144.599 35.6065 144.978C35.327 145.357 34.9466 145.619 34.4653 145.765V145.84C35.0677 145.939 35.5382 146.195 35.8766 146.608C36.2151 147.018 36.3843 147.526 36.3843 148.131C36.3843 148.65 36.2431 149.116 35.9605 149.529C35.681 149.938 35.2991 150.261 34.8147 150.497C34.3303 150.733 33.7791 150.851 33.1612 150.851Z" fill="#4F4F4F"/>
<path id="2" d="M30.3479 180.232V179.394L33.4965 175.947C33.866 175.544 34.1703 175.193 34.4094 174.895C34.6485 174.593 34.8255 174.311 34.9404 174.047C35.0584 173.78 35.1174 173.5 35.1174 173.209C35.1174 172.873 35.0367 172.583 34.8752 172.338C34.7169 172.092 34.4995 171.903 34.2231 171.769C33.9468 171.636 33.6363 171.569 33.2916 171.569C32.9252 171.569 32.6053 171.645 32.3321 171.797C32.0619 171.946 31.8523 172.156 31.7033 172.426C31.5573 172.696 31.4844 173.013 31.4844 173.376H30.3851C30.3851 172.817 30.514 172.327 30.7717 171.904C31.0295 171.482 31.3803 171.153 31.8244 170.917C32.2715 170.681 32.773 170.563 33.3288 170.563C33.8878 170.563 34.383 170.681 34.8147 170.917C35.2463 171.153 35.5848 171.471 35.8301 171.872C36.0754 172.272 36.198 172.718 36.198 173.209C36.198 173.559 36.1344 173.903 36.0071 174.238C35.8829 174.57 35.6655 174.941 35.355 175.351C35.0476 175.758 34.6206 176.255 34.0741 176.842L31.9315 179.133V179.208H36.3657V180.232H30.3479Z" fill="#4F4F4F"/>
<path id="1" d="M35.5459 204.577V214.116H34.3908V205.788H34.3349L32.006 207.334V206.161L34.3908 204.577H35.5459Z" fill="#4F4F4F"/>
<g id="Group 2276">
<rect id="Rectangle 2" x="54.2438" y="32.2443" width="349.767" height="181.442" stroke="#F3F3F3" stroke-width="1.09302"/>
<path id="Vector 21" d="M53.6973 91.814H404.558" stroke="#F3F3F3" stroke-width="1.09302"/>
<path id="Vector 27" d="M53.6973 62.3025H404.558" stroke="#F3F3F3" stroke-width="1.09302"/>
<path id="Vector 2" d="M53.6973 121.326H404.558" stroke="#F3F3F3" stroke-width="1.09302"/>
<path id="Vector 4" d="M53.6973 150.837H404.558" stroke="#F3F3F3" stroke-width="1.09302"/>
<path id="Vector 26" d="M53.6973 180.349H404.558" stroke="#F3F3F3" stroke-width="1.09302"/>
<path id="Vector 5" d="M112.721 31.6978L112.721 214.233" stroke="#F3F3F3" stroke-width="1.09302"/>
<path id="Vector 6" d="M170.65 31.6978L170.65 214.233" stroke="#F3F3F3" stroke-width="1.09302"/>
<path id="Vector 23" d="M228.58 31.6978L228.58 214.233" stroke="#F3F3F3" stroke-width="1.09302"/>
<path id="Vector 24" d="M286.511 31.6978L286.511 214.233" stroke="#F3F3F3" stroke-width="1.09302"/>
<path id="Vector 25" d="M344.441 31.6978L344.441 214.233" stroke="#F3F3F3" stroke-width="1.09302"/>
</g>
<g id="Group 2280">
<circle id="Ellipse 34" cx="53.5" cy="120.5" r="2.5" fill="#1D7157"/>
<circle id="Ellipse 35" cx="113.267" cy="92.3605" r="3.82558" fill="#1D7157"/>
<circle id="Ellipse 38" cx="287.058" cy="181.988" r="3.82558" fill="#1D7157"/>
<circle id="Ellipse 40" cx="402.919" cy="120.872" r="3.82558" fill="#1D7157"/>
</g>
<g id="Vector 54" filter="url(#filter0_d_328_22148)">
<path d="M56.4297 151.93L113.267 181.442L171.197 151.93L229.127 181.442L287.058 214.779L344.988 181.442L402.918 151.93" stroke="#3AC1EC" stroke-width="2.18605"/>
</g>
<circle id="Ellipse 47" cx="402.919" cy="151.384" r="3.82558" fill="#3AC1EC"/>
<circle id="Ellipse 45" cx="287.058" cy="214.779" r="3.82558" fill="#3AC1EC"/>
<circle id="Ellipse 41" cx="55.2441" cy="151.244" r="2.24414" fill="#3AC1EC"/>
<g id="Vector 53" filter="url(#filter1_d_328_22148)">
<path d="M54.791 120.232L113.814 92.3604L171.198 120.232L228.582 151.384L287.058 181.988L344.989 151.384L403.465 120.232" stroke="#1D7157" stroke-width="2.18605"/>
</g>
<g id="Vector 52" filter="url(#filter2_d_328_22148)">
<path d="M54.2441 181.442L113.814 150.837L171.198 181.442L229.128 63.3955L287.058 121.326L344.988 92.3606L402.919 181.442" stroke="#165BAA" stroke-width="2.18605"/>
</g>
<g id="Group 2278">
<circle id="Ellipse 27" cx="53.4651" cy="181.465" r="2.46512" fill="#165BAA"/>
<circle id="Ellipse 30" cx="229.128" cy="62.8488" r="3.82558" fill="#165BAA"/>
<circle id="Ellipse 33" cx="402.917" cy="180.895" r="3.82558" fill="#165BAA"/>
<circle id="Ellipse 34_2" cx="170.5" cy="119.5" r="2.5" fill="#1D7157"/>
<circle id="Ellipse 35_2" cx="228.5" cy="151.5" r="2.5" fill="#1D7157"/>
<circle id="Ellipse 36" cx="344.5" cy="151.5" r="2.5" fill="#1D7157"/>
<circle id="Ellipse 37" cx="170.465" cy="180.465" r="2.46512" fill="#165BAA"/>
<circle id="Ellipse 38_2" cx="287.465" cy="120.465" r="2.46512" fill="#165BAA"/>
<circle id="Ellipse 39" cx="113.465" cy="151.465" r="2.46512" fill="#165BAA"/>
<circle id="Ellipse 40_2" cx="344.465" cy="92.4651" r="2.46512" fill="#165BAA"/>
<circle id="Ellipse 41_2" cx="113.465" cy="181.465" r="2.46512" fill="#3AC1EC"/>
<circle id="Ellipse 42" cx="171.465" cy="151.465" r="2.46512" fill="#3AC1EC"/>
<circle id="Ellipse 43" cx="229.465" cy="181.465" r="2.46512" fill="#3AC1EC"/>
<circle id="Ellipse 44" cx="345.465" cy="181.465" r="2.46512" fill="#3AC1EC"/>
</g>
<g id="wlipse" filter="url(#filter3_d_328_22148)">
<g clip-path="url(#clip0_328_22148)">
<rect x="223" y="45" width="12.83" height="12.83" rx="6.415" fill="white"/>
<g id="twemoji:flag-united-kingdom" clip-path="url(#clip1_328_22148)">
<path id="Vector" d="M221.075 47.7526V49.5082H223.582L221.075 47.7526ZM223.153 57.527H226.867V54.9267L223.153 57.527ZM231.321 54.9271V57.527H235.035L231.321 54.9271ZM221.075 53.9631V55.7187L223.583 53.9631H221.075ZM235.035 45.9443H231.321V48.5446L235.035 45.9443ZM237.113 55.7192V53.9631H234.604L237.113 55.7192ZM237.113 49.5082V47.7526L234.605 49.5082H237.113ZM226.867 45.9443H223.153L226.867 48.5446V45.9443Z" fill="#00247D"/>
<path id="Vector_2" d="M232.275 53.9629L236.602 56.9926C236.813 56.775 236.965 56.5067 237.043 56.2135L233.828 53.9629H232.275ZM226.867 53.9629H225.913L221.587 56.9922C221.819 57.2283 222.117 57.3971 222.45 57.4755L226.867 54.383V53.9629ZM231.322 49.508H232.276L236.602 46.4787C236.366 46.2392 236.066 46.0716 235.739 45.9954L231.322 49.0879V49.508ZM225.913 49.508L221.587 46.4787C221.376 46.6965 221.224 46.9648 221.146 47.2579L224.36 49.508H225.913Z" fill="#CF1B2B"/>
<path id="Vector_3" d="M237.113 53.0721H230.43V57.527H231.321V54.9271L235.035 57.527H235.331C235.567 57.527 235.802 57.4798 236.02 57.3881C236.238 57.2963 236.436 57.162 236.601 56.9928L232.275 53.9631H233.828L237.042 56.2137C237.084 56.0636 237.113 55.9081 237.113 55.745V55.7192L234.604 53.9631H237.113V53.0721ZM221.075 53.0721V53.9631H223.583L221.075 55.7187V55.745C221.075 56.2311 221.271 56.6708 221.587 56.9924L225.913 53.9631H226.867V54.3832L222.45 57.4753C222.581 57.5065 222.716 57.527 222.857 57.527H223.153L226.867 54.9267V57.527H227.757V53.0721H221.075ZM237.113 47.7263C237.113 47.2594 236.929 46.8112 236.601 46.4789L232.275 49.5082H231.321V49.0881L235.738 45.9956C235.605 45.9628 235.468 45.9456 235.331 45.9443H235.035L231.321 48.5446V45.9443H230.43V50.3992H237.113V49.5082H234.605L237.113 47.7526V47.7263ZM226.867 45.9443V48.5446L223.153 45.9443H222.857C222.62 45.9442 222.386 45.9915 222.168 46.0833C221.95 46.1751 221.752 46.3096 221.587 46.4789L225.913 49.5082H224.359L221.145 47.2581C221.101 47.4103 221.077 47.5678 221.075 47.7263V47.7526L223.582 49.5082H221.075V50.3992H227.757V45.9443H226.867Z" fill="#DBDBDB"/>
<path id="Vector_4" d="M230.43 50.3992V45.9443H227.757V50.3992H221.075V53.0721H227.757V57.527H230.43V53.0721H237.113V50.3992H230.43Z" fill="#CF1B2B"/>
</g>
</g>
<rect x="223.321" y="45.3207" width="12.1885" height="12.1885" rx="6.09425" stroke="#8D8D8D" stroke-width="0.6415"/>
</g>
<g id="wlipse_2" filter="url(#filter4_d_328_22148)">
<g clip-path="url(#clip2_328_22148)">
<rect x="107" y="74" width="12.83" height="12.83" rx="6.415" fill="white"/>
<g id="twemoji:flag-france" clip-path="url(#clip3_328_22148)">
<path id="Vector_5" d="M121.112 84.2639C121.112 84.7176 120.932 85.1527 120.611 85.4735C120.291 85.7943 119.855 85.9746 119.402 85.9746H115.98V74.8552H119.402C119.855 74.8552 120.291 75.0355 120.611 75.3563C120.932 75.6771 121.112 76.1122 121.112 76.5659V84.2639Z" fill="#ED2939"/>
<path id="Vector_6" d="M107.427 74.8555C106.974 74.8555 106.539 75.0357 106.218 75.3565C105.897 75.6773 105.717 76.1124 105.717 76.5661V84.2641C105.717 84.7178 105.897 85.1529 106.218 85.4738C106.539 85.7946 106.974 85.9748 107.427 85.9748H110.849V74.8555H107.427Z" fill="#002495"/>
<path id="Vector_7" d="M110.849 74.8555H115.981V85.9748H110.849V74.8555Z" fill="#EEEEEE"/>
</g>
</g>
<rect x="107.321" y="74.3207" width="12.1885" height="12.1885" rx="6.09425" stroke="#8D8D8D" stroke-width="0.6415"/>
</g>
<g id="wlipse_3" filter="url(#filter5_d_328_22148)">
<g clip-path="url(#clip4_328_22148)">
<rect x="398" y="133" width="12.83" height="12.83" rx="6.415" fill="white"/>
<g id="twemoji:flag-italy" clip-path="url(#clip5_328_22148)">
<path id="Vector_8" d="M412.4 143C412.4 143.471 412.22 143.924 411.899 144.257C411.578 144.59 411.143 144.778 410.689 144.778H407.267V133.222H410.689C411.143 133.222 411.578 133.409 411.899 133.743C412.22 134.076 412.4 134.528 412.4 135V143Z" fill="#CE2B37"/>
<path id="Vector_9" d="M398.711 133.222C398.257 133.222 397.822 133.409 397.501 133.743C397.18 134.076 397 134.528 397 135V143C397 143.471 397.18 143.924 397.501 144.257C397.822 144.59 398.257 144.778 398.711 144.778H402.133V133.222H398.711Z" fill="#009246"/>
<path id="Vector_10" d="M402.134 133.222H407.267V144.778H402.134V133.222Z" fill="#EEEEEE"/>
</g>
</g>
<rect x="398.321" y="133.321" width="12.1885" height="12.1885" rx="6.09425" stroke="#8D8D8D" stroke-width="0.6415"/>
</g>
</g>
<defs>
<filter id="filter0_d_328_22148" x="51.9258" y="150.704" width="355.488" height="73.3364" filterUnits="userSpaceOnUse" color-interpolation-filters="sRGB">
<feFlood flood-opacity="0" result="BackgroundImageFix"/>
<feColorMatrix in="SourceAlpha" type="matrix" values="0 0 0 0 0 0 0 0 0 0 0 0 0 0 0 0 0 0 127 0" result="hardAlpha"/>
<feOffset dy="4"/>
<feGaussianBlur stdDeviation="2"/>
<feComposite in2="hardAlpha" operator="out"/>
<feColorMatrix type="matrix" values="0 0 0 0 0.691667 0 0 0 0 0.691667 0 0 0 0 0.691667 0 0 0 0.25 0"/>
<feBlend mode="normal" in2="BackgroundImageFix" result="effect1_dropShadow_328_22148"/>
<feBlend mode="normal" in="SourceGraphic" in2="effect1_dropShadow_328_22148" result="shape"/>
</filter>
<filter id="filter1_d_328_22148" x="50.3242" y="91.1484" width="357.655" height="100.075" filterUnits="userSpaceOnUse" color-interpolation-filters="sRGB">
<feFlood flood-opacity="0" result="BackgroundImageFix"/>
<feColorMatrix in="SourceAlpha" type="matrix" values="0 0 0 0 0 0 0 0 0 0 0 0 0 0 0 0 0 0 127 0" result="hardAlpha"/>
<feOffset dy="4"/>
<feGaussianBlur stdDeviation="2"/>
<feComposite in2="hardAlpha" operator="out"/>
<feColorMatrix type="matrix" values="0 0 0 0 0.691667 0 0 0 0 0.691667 0 0 0 0 0.691667 0 0 0 0.25 0"/>
<feBlend mode="normal" in2="BackgroundImageFix" result="effect1_dropShadow_328_22148"/>
<feBlend mode="normal" in="SourceGraphic" in2="effect1_dropShadow_328_22148" result="shape"/>
</filter>
<filter id="filter2_d_328_22148" x="49.7451" y="61.5417" width="358.09" height="129.397" filterUnits="userSpaceOnUse" color-interpolation-filters="sRGB">
<feFlood flood-opacity="0" result="BackgroundImageFix"/>
<feColorMatrix in="SourceAlpha" type="matrix" values="0 0 0 0 0 0 0 0 0 0 0 0 0 0 0 0 0 0 127 0" result="hardAlpha"/>
<feOffset dy="4"/>
<feGaussianBlur stdDeviation="2"/>
<feComposite in2="hardAlpha" operator="out"/>
<feColorMatrix type="matrix" values="0 0 0 0 0.691667 0 0 0 0 0.691667 0 0 0 0 0.691667 0 0 0 0.25 0"/>
<feBlend mode="normal" in2="BackgroundImageFix" result="effect1_dropShadow_328_22148"/>
<feBlend mode="normal" in="SourceGraphic" in2="effect1_dropShadow_328_22148" result="shape"/>
</filter>
<filter id="filter3_d_328_22148" x="220.434" y="45" width="17.9621" height="17.9621" filterUnits="userSpaceOnUse" color-interpolation-filters="sRGB">
<feFlood flood-opacity="0" result="BackgroundImageFix"/>
<feColorMatrix in="SourceAlpha" type="matrix" values="0 0 0 0 0 0 0 0 0 0 0 0 0 0 0 0 0 0 127 0" result="hardAlpha"/>
<feOffset dy="2.566"/>
<feGaussianBlur stdDeviation="1.283"/>
<feComposite in2="hardAlpha" operator="out"/>
<feColorMatrix type="matrix" values="0 0 0 0 0.7125 0 0 0 0 0.7125 0 0 0 0 0.7125 0 0 0 0.25 0"/>
<feBlend mode="normal" in2="BackgroundImageFix" result="effect1_dropShadow_328_22148"/>
<feBlend mode="normal" in="SourceGraphic" in2="effect1_dropShadow_328_22148" result="shape"/>
</filter>
<filter id="filter4_d_328_22148" x="104.434" y="74" width="17.9621" height="17.9621" filterUnits="userSpaceOnUse" color-interpolation-filters="sRGB">
<feFlood flood-opacity="0" result="BackgroundImageFix"/>
<feColorMatrix in="SourceAlpha" type="matrix" values="0 0 0 0 0 0 0 0 0 0 0 0 0 0 0 0 0 0 127 0" result="hardAlpha"/>
<feOffset dy="2.566"/>
<feGaussianBlur stdDeviation="1.283"/>
<feComposite in2="hardAlpha" operator="out"/>
<feColorMatrix type="matrix" values="0 0 0 0 0.7125 0 0 0 0 0.7125 0 0 0 0 0.7125 0 0 0 0.25 0"/>
<feBlend mode="normal" in2="BackgroundImageFix" result="effect1_dropShadow_328_22148"/>
<feBlend mode="normal" in="SourceGraphic" in2="effect1_dropShadow_328_22148" result="shape"/>
</filter>
<filter id="filter5_d_328_22148" x="395.434" y="133" width="17.9621" height="17.9621" filterUnits="userSpaceOnUse" color-interpolation-filters="sRGB">
<feFlood flood-opacity="0" result="BackgroundImageFix"/>
<feColorMatrix in="SourceAlpha" type="matrix" values="0 0 0 0 0 0 0 0 0 0 0 0 0 0 0 0 0 0 127 0" result="hardAlpha"/>
<feOffset dy="2.566"/>
<feGaussianBlur stdDeviation="1.283"/>
<feComposite in2="hardAlpha" operator="out"/>
<feColorMatrix type="matrix" values="0 0 0 0 0.7125 0 0 0 0 0.7125 0 0 0 0 0.7125 0 0 0 0.25 0"/>
<feBlend mode="normal" in2="BackgroundImageFix" result="effect1_dropShadow_328_22148"/>
<feBlend mode="normal" in="SourceGraphic" in2="effect1_dropShadow_328_22148" result="shape"/>
</filter>
<clipPath id="clip0_328_22148">
<rect x="223" y="45" width="12.83" height="12.83" rx="6.415" fill="white"/>
</clipPath>
<clipPath id="clip1_328_22148">
<rect width="16.0375" height="16.0375" fill="white" transform="translate(221.075 43.7168)"/>
</clipPath>
<clipPath id="clip2_328_22148">
<rect x="107" y="74" width="12.83" height="12.83" rx="6.415" fill="white"/>
</clipPath>
<clipPath id="clip3_328_22148">
<rect width="15.396" height="15.396" fill="white" transform="translate(105.717 72.717)"/>
</clipPath>
<clipPath id="clip4_328_22148">
<rect x="398" y="133" width="12.83" height="12.83" rx="6.415" fill="white"/>
</clipPath>
<clipPath id="clip5_328_22148">
<rect width="15.4" height="16" fill="white" transform="translate(397 131)"/>
</clipPath>
</defs>
</svg>
